<svg width="26" height="22" viewBox="0 0 26 22" fill="none" xmlns="http://www.w3.org/2000/svg">
<path opacity="0.4" fill-rule="evenodd" clip-rule="evenodd" d="M0 21.3373V9.01205C0 8.64607 0.30639 8.3494 0.684211 8.3494H6.1579V0.662651C6.1579 0.296669 6.46428 0 6.84211 0H9.23787H9.92105H19.1579C19.5357 0 19.8421 0.296669 19.8421 0.662651V8.3494H25.3158C25.6936 8.3494 26 8.64607 26 9.01205V21.3373C26 21.7033 25.6936 22 25.3158 22H0.684211C0.30639 22 0 21.7033 0 21.3373ZM9.92105 1.3253H9.23787H7.52632V20.6747H10.2632V17.3614C10.2632 16.9955 10.5695 16.6988 10.9474 16.6988H15.0526C15.4305 16.6988 15.7368 16.9955 15.7368 17.3614V20.6747H18.4737V1.3253H9.92105ZM24.6316 9.6747H19.8421V20.6747H24.6316V9.6747ZM14.3684 18.0241H11.6316V20.6747H14.3684V18.0241ZM6.1579 9.6747H1.36842V20.6747H6.1579V9.6747ZM10.9459 12.3242H15.0512C15.4291 12.3242 15.7354 12.6209 15.7354 12.9869C15.7354 13.3529 15.429 13.6495 15.0512 13.6495H10.9459C10.5681 13.6495 10.2617 13.3529 10.2617 12.9869C10.2617 12.6209 10.5681 12.3242 10.9459 12.3242ZM15.0512 8.34961H10.9459C10.5681 8.34961 10.2617 8.64628 10.2617 9.01226C10.2617 9.37824 10.5681 9.67491 10.9459 9.67491H15.0512C15.429 9.67491 15.7354 9.37824 15.7354 9.01226C15.7354 8.64628 15.4291 8.34961 15.0512 8.34961ZM10.9459 4.37305H15.0512C15.4291 4.37305 15.7354 4.66972 15.7354 5.0357C15.7354 5.40168 15.429 5.69835 15.0512 5.69835H10.9459C10.5681 5.69835 10.2617 5.40168 10.2617 5.0357C10.2617 4.66972 10.5681 4.37305 10.9459 4.37305Z" fill="black"/>
</svg>
