<svg width="20" height="23" viewBox="0 0 20 23" fill="none" xmlns="http://www.w3.org/2000/svg">
<g opacity="0.4">
<path d="M2.38809 7.83642C2.47104 7.13136 3.06858 6.6 3.7785 6.6H16.2215C16.9314 6.6 17.529 7.13136 17.6119 7.83642L19.1413 20.8364C19.2392 21.6687 18.5889 22.4 17.7509 22.4H2.24909C1.41106 22.4 0.76076 21.6687 0.858677 20.8364L2.38809 7.83642Z" stroke="black" stroke-width="1.2"/>
<mask id="path-2-outside-1" maskUnits="userSpaceOnUse" x="3" y="0" width="14" height="8" fill="black">
<rect fill="white" x="3" width="14" height="8"/>
<path fill-rule="evenodd" clip-rule="evenodd" d="M15 7H16C16 3.68629 13.3137 1 10 1C6.68629 1 4 3.68629 4 7H5C5 4.23858 7.23858 2 10 2C12.7614 2 15 4.23858 15 7Z"/>
</mask>
<path fill-rule="evenodd" clip-rule="evenodd" d="M15 7H16C16 3.68629 13.3137 1 10 1C6.68629 1 4 3.68629 4 7H5C5 4.23858 7.23858 2 10 2C12.7614 2 15 4.23858 15 7Z" fill="black"/>
<path d="M15 7H14.8V7.2H15V7ZM16 7V7.2H16.2V7H16ZM4 7H3.8V7.2H4V7ZM5 7V7.2H5.2V7H5ZM15 7.2H16V6.8H15V7.2ZM16.2 7C16.2 3.57583 13.4242 0.8 10 0.8V1.2C13.2033 1.2 15.8 3.79675 15.8 7H16.2ZM10 0.8C6.57583 0.8 3.8 3.57583 3.8 7H4.2C4.2 3.79675 6.79675 1.2 10 1.2V0.8ZM4 7.2H5V6.8H4V7.2ZM10 1.8C7.12812 1.8 4.8 4.12812 4.8 7H5.2C5.2 4.34903 7.34903 2.2 10 2.2V1.8ZM15.2 7C15.2 4.12812 12.8719 1.8 10 1.8V2.2C12.651 2.2 14.8 4.34903 14.8 7H15.2Z" fill="black" mask="url(#path-2-outside-1)"/>
</g>
</svg>
