<svg width="23" height="26" viewBox="0 0 23 26" fill="none" xmlns="http://www.w3.org/2000/svg">
<g opacity="0.4">
<path d="M18.7281 8.40687C18.7281 8.38525 18.7281 8.36903 18.7281 8.3474C18.7173 8.05005 18.4632 7.82298 18.1658 7.8392H8.13685C8.11523 7.8392 8.09901 7.8392 8.07738 7.8392C7.78003 7.85001 7.55296 8.10411 7.56918 8.40146C7.56918 8.42309 7.56918 8.43931 7.56918 8.46094C7.57999 8.75829 7.83409 8.98536 8.13145 8.96914H18.1604C18.1766 8.96914 18.1982 8.96914 18.2199 8.96914C18.5172 8.95833 18.7443 8.70422 18.7281 8.40687Z" fill="black"/>
<path d="M13.6406 5.57924C13.6406 5.55761 13.6406 5.54139 13.6406 5.51977C13.6298 5.22241 13.3757 4.99534 13.0784 5.01156H8.13685C8.11523 5.01156 8.09901 5.01156 8.07738 5.01156C7.78003 5.02237 7.55296 5.27648 7.56918 5.57383C7.56918 5.59546 7.56918 5.61167 7.56918 5.6333C7.57999 5.93065 7.83409 6.15773 8.13145 6.14151H13.0729C13.0946 6.14151 13.1162 6.14151 13.1324 6.14151C13.4298 6.13069 13.6568 5.87659 13.6406 5.57924Z" fill="black"/>
<path d="M18.6414 0H3.1898C1.07048 0 0.0270322 1.09751 0 2.62753C0 2.63835 0 2.64916 0 2.65456V12.6941C0 13.9376 1.07588 14.8405 2.31396 14.8405H4.51979V19.5874C4.48735 20.8363 5.47673 21.8743 6.72021 21.9013C6.73103 21.9013 6.74184 21.9013 6.74725 21.9013H12.397V25.4588C12.4132 25.6696 12.543 25.8534 12.7376 25.9399C12.9214 26.0156 13.1377 25.9994 13.2999 25.8859L15.5598 24.1937L17.8196 25.8859C17.9332 25.9507 18.0575 25.994 18.1873 25.9994C18.2684 26.0048 18.3549 25.9724 18.4144 25.9129C18.5982 25.8318 18.7279 25.6588 18.755 25.4588V21.9013H19.6578C20.9446 21.9013 21.9988 20.8741 22.0313 19.5874V3.22224C22.0313 1.38405 20.4742 0 18.6414 0ZM4.51438 2.65456V13.7106H2.31396C1.69222 13.7106 1.12995 13.3159 1.12995 12.6941V2.65456C1.16239 1.73547 1.90307 1.14617 2.82216 1.12995H3.13033C3.93049 1.1732 4.54682 1.85441 4.51438 2.65456ZM17.652 24.3018L15.9598 23.0042C15.7436 22.8637 15.4678 22.8637 15.2516 23.0042L13.5594 24.3018L13.5053 19.3279C14.1487 19.6739 14.8677 19.8631 15.5976 19.8631C16.3275 19.8631 17.0465 19.6793 17.6899 19.3279L17.652 24.3018ZM15.6409 18.7331C15.6246 18.7385 15.6084 18.7385 15.5868 18.7385C13.7324 18.7548 12.2132 17.2626 12.1969 15.4082C12.1807 13.5538 13.6729 12.0346 15.5273 12.0183C17.3817 12.0021 18.9009 13.4943 18.9172 15.3487C18.9172 15.3649 18.9172 15.3866 18.9172 15.4028C18.9334 17.2302 17.4682 18.7223 15.6409 18.7331ZM19.7173 20.7714H18.8144V18.5115C20.5067 16.7382 20.4418 13.9322 18.6685 12.24C16.8951 10.5478 14.0892 10.6127 12.397 12.386C10.7696 14.089 10.7588 16.7652 12.3699 18.4844V20.7714H6.74725C6.1255 20.7552 5.62811 20.2415 5.64433 19.6144C5.64433 19.6036 5.64433 19.5928 5.64433 19.582V2.65456C5.64433 2.03282 5.44429 1.41108 5.10909 1.12995H18.6414C19.8579 1.12995 20.9013 2.00579 20.9013 3.22224V19.5874C20.8743 20.2307 20.3553 20.7443 19.7173 20.7714Z" fill="black"/>
</g>
</svg>
