<svg width="22" height="24" viewBox="0 0 22 24" fill="none" xmlns="http://www.w3.org/2000/svg">
<g opacity="0.4">
<path d="M11.402 1.35979H17.5926C19.275 1.35979 20.64 2.72987 20.64 4.40721V19.327C20.64 21.0093 19.2699 22.3744 17.5926 22.3744H11.3013C10.9235 22.3744 10.6213 22.6766 10.6213 23.0544C10.6213 23.4322 10.9235 23.7344 11.3013 23.7344H17.5926C20.0255 23.7344 22 21.7548 22 19.327V4.40721C22 1.97431 20.0204 -0.00021553 17.5926 -0.00021553H11.402C11.0243 -0.00021553 10.722 0.302008 10.722 0.679787C10.722 1.05757 11.0293 1.35979 11.402 1.35979Z" fill="black"/>
<path d="M0.199787 12.3457L4.52158 16.6675C4.78854 16.9344 5.21669 16.9344 5.48366 16.6675C5.75062 16.4005 5.75062 15.9723 5.48366 15.7054L2.32039 12.5421H16.1169C16.4947 12.5421 16.7969 12.2399 16.7969 11.8621C16.7969 11.4843 16.4947 11.1821 16.1169 11.1821H2.32039L5.48366 8.01883C5.75062 7.75187 5.75062 7.32372 5.48366 7.05676C5.35269 6.92579 5.1764 6.85527 5.00514 6.85527C4.83388 6.85527 4.65758 6.92076 4.52662 7.05676L0.204824 11.3785C-0.0671768 11.6505 -0.0671749 12.0837 0.199787 12.3457Z" fill="black"/>
</g>
</svg>
